<?xml version="1.0" encoding="UTF-8"?>
<svg xmlns="http://www.w3.org/2000/svg" viewBox="0 0 200 200">
  <rect width="200" height="200" fill="#eff6ff"/>
  <circle cx="100" cy="60" r="30" fill="#461959"/>
  <path d="M70,90 L130,90 L130,150 Q100,170 70,150 Z" fill="#7a316f"/>
  <rect x="75" y="150" width="15" height="30" fill="#533483"/>
  <rect x="110" y="150" width="15" height="30" fill="#533483"/>
  <circle cx="85" cy="55" r="5" fill="#fff"/>
  <circle cx="115" cy="55" r="5" fill="#fff"/>
  <path d="M90,70 Q100,80 110,70" fill="none" stroke="#fff" stroke-width="2"/>
  <path d="M60,35 Q75,25 85,35" fill="none" stroke="#461959" stroke-width="3"/>
  <path d="M140,35 Q125,25 115,35" fill="none" stroke="#461959" stroke-width="3"/>
  <rect x="70" y="100" width="60" height="25" fill="#cd104d"/>
  <path d="M70,125 H130" stroke="#f0c57a" stroke-width="2"/>
  <path d="M75,130 H125" stroke="#f0c57a" stroke-width="2"/>
  <circle cx="85" cy="110" r="3" fill="#f0c57a"/>
  <circle cx="100" cy="110" r="3" fill="#f0c57a"/>
  <circle cx="115" cy="110" r="3" fill="#f0c57a"/>
</svg>