<?xml version="1.0" encoding="UTF-8"?>
<svg xmlns="http://www.w3.org/2000/svg" width="600" height="400" viewBox="0 0 600 400">
  <!-- Background -->
  <rect width="600" height="400" fill="#F8F8F8" />
  
  <!-- Background pattern -->
  <pattern id="woodgrain" patternUnits="userSpaceOnUse" width="100" height="100">
    <rect width="100" height="100" fill="#F5F5F5" />
    <path d="M0 50 Q 25 40, 50 50 Q 75 60, 100 50" stroke="#EEEEEE" stroke-width="2" fill="none" />
    <path d="M0 70 Q 25 80, 50 70 Q 75 60, 100 70" stroke="#EEEEEE" stroke-width="2" fill="none" />
    <path d="M0 30 Q 25 20, 50 30 Q 75 40, 100 30" stroke="#EEEEEE" stroke-width="2" fill="none" />
  </pattern>
  <rect width="600" height="400" fill="url(#woodgrain)" />
  
  <!-- Channapatna Stacking Toy -->
  <g transform="translate(300, 200)">
    <!-- Base -->
    <rect x="-50" y="120" width="100" height="20" rx="5" fill="#5D4037" />
    <!-- Center pole -->
    <rect x="-5" y="-100" width="10" height="220" fill="#8D6E63" />
    
    <!-- Stacking rings -->
    <g>
      <!-- Ring 1 (bottom) -->
      <ellipse cx="0" cy="90" rx="40" ry="15" fill="#F44336" stroke="#D32F2F" stroke-width="2" />
      <ellipse cx="0" cy="90" rx="5" ry="2" fill="#D32F2F" />
      <!-- Ring 2 -->
      <ellipse cx="0" cy="60" rx="45" ry="15" fill="#2196F3" stroke="#1976D2" stroke-width="2" />
      <ellipse cx="0" cy="60" rx="5" ry="2" fill="#1976D2" />
      <!-- Ring 3 -->
      <ellipse cx="0" cy="30" rx="35" ry="15" fill="#FFC107" stroke="#FFA000" stroke-width="2" />
      <ellipse cx="0" cy="30" rx="5" ry="2" fill="#FFA000" />
      <!-- Ring 4 -->
      <ellipse cx="0" cy="0" rx="30" ry="15" fill="#4CAF50" stroke="#388E3C" stroke-width="2" />
      <ellipse cx="0" cy="0" rx="5" ry="2" fill="#388E3C" />
      <!-- Ring 5 -->
      <ellipse cx="0" cy="-30" rx="25" ry="15" fill="#9C27B0" stroke="#7B1FA2" stroke-width="2" />
      <ellipse cx="0" cy="-30" rx="5" ry="2" fill="#7B1FA2" />
      <!-- Top piece -->
      <path d="M0,-75 L-10,-45 L10,-45 Z" fill="#FF9800" stroke="#F57C00" stroke-width="2" />
    </g>
  </g>
  
  <!-- Channapatna Wooden Horse -->
  <g transform="translate(120, 230)">
    <!-- Body -->
    <ellipse cx="0" cy="0" rx="70" ry="35" fill="#FF9800" stroke="#F57C00" stroke-width="2" />
    <!-- Neck -->
    <path d="M50,-30 C70,-80 90,-90 70,-120" fill="none" stroke="#F57C00" stroke-width="15" stroke-linecap="round" />
    <!-- Head -->
    <ellipse cx="65" cy="-135" rx="20" ry="25" fill="#FF9800" stroke="#F57C00" stroke-width="2" transform="rotate(-15)"/>
    <!-- Ears -->
    <path d="M80,-150 L90,-170 L100,-150" fill="#FF9800" stroke="#F57C00" stroke-width="2" />
    <!-- Eye -->
    <circle cx="75" cy="-145" r="3" fill="#5D4037" />
    <!-- Mane -->
    <path d="M55,-100 L65,-120 M60,-105 L70,-125 M65,-110 L75,-130" stroke="#F57C00" stroke-width="3" />
    <!-- Legs -->
    <rect x="-55" y="35" width="15" height="50" rx="5" fill="#FF9800" stroke="#F57C00" stroke-width="2" />
    <rect x="-25" y="35" width="15" height="50" rx="5" fill="#FF9800" stroke="#F57C00" stroke-width="2" />
    <rect x="15" y="35" width="15" height="50" rx="5" fill="#FF9800" stroke="#F57C00" stroke-width="2" />
    <rect x="45" y="35" width="15" height="50" rx="5" fill="#FF9800" stroke="#F57C00" stroke-width="2" />
    <!-- Tail -->
    <path d="M-70,0 C-90,0 -100,-20 -90,-40" fill="none" stroke="#F57C00" stroke-width="8" stroke-linecap="round" />
    <!-- Decorative elements -->
    <path d="M-40,0 L40,0" stroke="#F57C00" stroke-width="3" stroke-dasharray="5,3" />
    <path d="M-30,15 L30,15" stroke="#F57C00" stroke-width="3" stroke-dasharray="5,3" />
    <path d="M-30,-15 L30,-15" stroke="#F57C00" stroke-width="3" stroke-dasharray="5,3" />
  </g>
  
  <!-- Channapatna Spinning Top -->
  <g transform="translate(480, 230)">
    <!-- Base -->
    <path d="M0,60 L-40,0 L40,0 Z" fill="#4CAF50" stroke="#388E3C" stroke-width="2" />
    <!-- Middle section -->
    <rect x="-40" y="-40" width="80" height="40" fill="#FFC107" stroke="#FFA000" stroke-width="2" />
    <!-- Top section -->
    <path d="M-40,-40 L0,-80 L40,-40 Z" fill="#2196F3" stroke="#1976D2" stroke-width="2" />
    <!-- Handle -->
    <rect x="-5" y="-120" width="10" height="40" fill="#8D6E63" stroke="#5D4037" stroke-width="1" />
    <circle cx="0" cy="-80" r="7" fill="#8D6E63" stroke="#5D4037" stroke-width="1" />
    <circle cx="0" cy="-120" r="10" fill="#8D6E63" stroke="#5D4037" stroke-width="1" />
    <!-- Decorative patterns -->
    <circle cx="0" cy="-20" r="15" fill="#FFEB3B" stroke="#FBC02D" stroke-width="1" />
    <circle cx="0" cy="-20" r="7" fill="#FBC02D" />
    <path d="M-30,-20 L-20,-20 M20,-20 L30,-20" stroke="#FBC02D" stroke-width="2" />
    <path d="M0,-45 L0,-35 M-25,-25 L-15,-15 M25,-25 L15,-15" stroke="#1976D2" stroke-width="2" />
    <path d="M-30,20 L-20,30 M0,20 L0,40 M30,20 L20,30" stroke="#388E3C" stroke-width="2" />
  </g>
  
  <!-- Decorative Elements -->
  <g opacity="0.4">
    <!-- Circular patterns (lacquer effect) -->
    <circle cx="50" cy="50" r="30" fill="none" stroke="#E64A19" stroke-width="2" stroke-dasharray="5,5" />
    <circle cx="550" cy="50" r="30" fill="none" stroke="#E64A19" stroke-width="2" stroke-dasharray="5,5" />
    <circle cx="50" cy="350" r="30" fill="none" stroke="#E64A19" stroke-width="2" stroke-dasharray="5,5" />
    <circle cx="550" cy="350" r="30" fill="none" stroke="#E64A19" stroke-width="2" stroke-dasharray="5,5" />
    
    <!-- Geometric patterns (traditional lacquer designs) -->
    <path d="M20,50 L80,50 M50,20 L50,80" stroke="#E64A19" stroke-width="2" />
    <path d="M520,50 L580,50 M550,20 L550,80" stroke="#E64A19" stroke-width="2" />
    <path d="M20,350 L80,350 M50,320 L50,380" stroke="#E64A19" stroke-width="2" />
    <path d="M520,350 L580,350 M550,320 L550,380" stroke="#E64A19" stroke-width="2" />
  </g>
  
  <!-- "Channapatna Toys" Label -->
  <g transform="translate(300, 370)">
    <rect x="-120" y="-25" width="240" height="40" rx="5" fill="#E64A19" opacity="0.9" />
    <text x="0" y="0" font-family="Arial, sans-serif" font-size="20" font-weight="bold" fill="white" text-anchor="middle" dominant-baseline="middle">Channapatna Toys</text>
  </g>
</svg>