<svg width="800" height="600" xmlns="http://www.w3.org/2000/svg">
  <rect width="100%" height="100%" fill="#E3F2FD"/>
  <!-- House foundation -->
  <rect x="200" y="400" width="400" height="30" fill="#5D4037"/>
  <!-- House main body -->
  <rect x="200" y="200" width="400" height="200" fill="#FFECB3"/>
  <!-- Roof -->
  <polygon points="200,200 400,100 600,200" fill="#D84315"/>
  <rect x="210" y="180" width="380" height="20" fill="#BF360C"/>
  <!-- Door -->
  <rect x="360" y="300" width="80" height="100" fill="#795548"/>
  <circle cx="430" cy="350" r="5" fill="#FFCC80"/>
  <!-- Windows -->
  <rect x="250" y="230" width="60" height="60" fill="#90CAF9"/>
  <path d="M250,260 L310,260 M280,230 L280,290" stroke="#42A5F5" stroke-width="2" />
  <rect x="490" y="230" width="60" height="60" fill="#90CAF9"/>
  <path d="M490,260 L550,260 M520,230 L520,290" stroke="#42A5F5" stroke-width="2" />
  <rect x="250" y="320" width="60" height="60" fill="#90CAF9"/>
  <path d="M250,350 L310,350 M280,320 L280,380" stroke="#42A5F5" stroke-width="2" />
  <rect x="490" y="320" width="60" height="60" fill="#90CAF9"/>
  <path d="M490,350 L550,350 M520,320 L520,380" stroke="#42A5F5" stroke-width="2" />
  <!-- Chimney -->
  <rect x="520" y="80" width="30" height="50" fill="#795548"/>
  <!-- Fence -->
  <rect x="150" y="390" width="500" height="10" fill="#A1887F"/>
  <rect x="150" y="370" width="10" height="30" fill="#8D6E63"/>
  <rect x="200" y="370" width="10" height="30" fill="#8D6E63"/>
  <rect x="250" y="370" width="10" height="30" fill="#8D6E63"/>
  <rect x="300" y="370" width="10" height="30" fill="#8D6E63"/>
  <rect x="350" y="370" width="10" height="30" fill="#8D6E63"/>
  <rect x="400" y="370" width="10" height="30" fill="#8D6E63"/>
  <rect x="450" y="370" width="10" height="30" fill="#8D6E63"/>
  <rect x="500" y="370" width="10" height="30" fill="#8D6E63"/>
  <rect x="550" y="370" width="10" height="30" fill="#8D6E63"/>
  <rect x="600" y="370" width="10" height="30" fill="#8D6E63"/>
  <rect x="640" y="370" width="10" height="30" fill="#8D6E63"/>
  <!-- Path -->
  <rect x="380" y="400" width="40" height="30" fill="#BDBDBD"/>
  <!-- Tree -->
  <rect x="650" y="350" width="15" height="50" fill="#5D4037"/>
  <circle cx="657" cy="320" r="30" fill="#66BB6A"/>
  <circle cx="637" cy="300" r="15" fill="#66BB6A"/>
  <circle cx="677" cy="300" r="15" fill="#66BB6A"/>
  <text x="400" y="500" font-family="Arial" font-size="24" text-anchor="middle" fill="#5D4037">Miniature Dollhouse</text>
  <text x="400" y="530" font-family="Arial" font-size="18" text-anchor="middle" fill="#795548">Traditional Wooden Craft</text>
</svg>