<?xml version="1.0" encoding="UTF-8"?>
<svg xmlns="http://www.w3.org/2000/svg" viewBox="0 0 200 200">
  <!-- Background -->
  <rect width="200" height="200" fill="#fefae0"/>
  
  <!-- House Base -->
  <rect x="40" y="80" width="120" height="100" fill="#dda15e"/>
  
  <!-- Roof -->
  <polygon points="40,80 100,40 160,80" fill="#bc6c25"/>
  
  <!-- Door -->
  <rect x="90" y="130" width="20" height="50" fill="#606c38"/>
  <circle cx="100" cy="155" r="2" fill="#fefae0"/>
  
  <!-- Windows -->
  <rect x="50" y="100" width="20" height="20" fill="#faedcd"/>
  <line x1="60" y1="100" x2="60" y2="120" stroke="#606c38" stroke-width="1"/>
  <line x1="50" y1="110" x2="70" y2="110" stroke="#606c38" stroke-width="1"/>
  
  <rect x="130" y="100" width="20" height="20" fill="#faedcd"/>
  <line x1="140" y1="100" x2="140" y2="120" stroke="#606c38" stroke-width="1"/>
  <line x1="130" y1="110" x2="150" y2="110" stroke="#606c38" stroke-width="1"/>
  
  <rect x="50" y="140" width="20" height="20" fill="#faedcd"/>
  <line x1="60" y1="140" x2="60" y2="160" stroke="#606c38" stroke-width="1"/>
  <line x1="50" y1="150" x2="70" y2="150" stroke="#606c38" stroke-width="1"/>
  
  <rect x="130" y="140" width="20" height="20" fill="#faedcd"/>
  <line x1="140" y1="140" x2="140" y2="160" stroke="#606c38" stroke-width="1"/>
  <line x1="130" y1="150" x2="150" y2="150" stroke="#606c38" stroke-width="1"/>
  
  <!-- Chimney -->
  <rect x="130" y="50" width="10" height="20" fill="#6c757d"/>
  
  <!-- Decoration -->
  <rect x="40" y="120" width="120" height="3" fill="#606c38"/>
  <rect x="40" y="170" width="120" height="10" fill="#606c38"/>
  
  <!-- Tiny Furniture -->
  <rect x="60" y="70" width="5" height="8" fill="#283618"/>
  <rect x="75" y="70" width="10" height="5" fill="#283618"/>
  <circle cx="120" cy="75" r="5" fill="#283618"/>
</svg>