<svg width="800" height="600" xmlns="http://www.w3.org/2000/svg">
  <rect width="100%" height="100%" fill="#FCE4EC"/>
  <!-- Top base -->
  <path d="M400,400 L350,300 L450,300 Z" fill="#D81B60" />
  <!-- Top middle section -->
  <ellipse cx="400" cy="300" rx="50" ry="15" fill="#F06292" />
  <!-- Top upper part -->
  <path d="M400,250 C430,270 430,290 400,300 C370,290 370,270 400,250 Z" fill="#EC407A" />
  <!-- Handle -->
  <rect x="395" y="200" width="10" height="50" fill="#C2185B" />
  <ellipse cx="400" cy="200" rx="15" ry="5" fill="#D81B60" />
  <!-- Decorative rings -->
  <ellipse cx="400" cy="320" rx="40" ry="10" fill="#F8BBD0" stroke="#C2185B" stroke-width="2" />
  <ellipse cx="400" cy="340" rx="35" ry="10" fill="#F8BBD0" stroke="#C2185B" stroke-width="2" />
  <ellipse cx="400" cy="360" rx="30" ry="10" fill="#F8BBD0" stroke="#C2185B" stroke-width="2" />
  <ellipse cx="400" cy="380" rx="25" ry="10" fill="#F8BBD0" stroke="#C2185B" stroke-width="2" />
  <!-- Motion lines -->
  <path d="M300,300 C330,310 370,300 400,310" stroke="#AD1457" stroke-width="2" stroke-dasharray="5,5" fill="none" />
  <path d="M500,300 C470,310 430,300 400,310" stroke="#AD1457" stroke-width="2" stroke-dasharray="5,5" fill="none" />
  <path d="M400,200 C410,230 420,260 400,310" stroke="#AD1457" stroke-width="2" stroke-dasharray="5,5" fill="none" />
  <text x="400" y="500" font-family="Arial" font-size="24" text-anchor="middle" fill="#AD1457">Wooden Spinning Top</text>
  <text x="400" y="530" font-family="Arial" font-size="18" text-anchor="middle" fill="#C2185B">Traditional Lattu Toy</text>
</svg>