<?xml version="1.0" encoding="UTF-8"?>
<svg width="300" height="300" viewBox="0 0 300 300" xmlns="http://www.w3.org/2000/svg">
  <!-- Traditional Indian Spinning Top (Lattu) -->
  <defs>
    <linearGradient id="wood" x1="0%" y1="0%" x2="100%" y2="0%">
      <stop offset="0%" style="stop-color:#8B4513;stop-opacity:1" />
      <stop offset="50%" style="stop-color:#A0522D;stop-opacity:1" />
      <stop offset="100%" style="stop-color:#8B4513;stop-opacity:1" />
    </linearGradient>
  </defs>
  
  <!-- Wooden stem -->
  <line x1="150" y1="60" x2="150" y2="160" stroke="url(#wood)" stroke-width="10" />
  
  <!-- Metal tip -->
  <path d="M145,160 L150,180 L155,160 Z" fill="#A9A9A9" />
  
  <!-- Top cone -->
  <path d="M150,140 L200,100 L100,100 Z" fill="#4CAF50" />
  
  <!-- Body of the top - colorful rings -->
  <circle cx="150" cy="100" r="50" fill="#F44336" />
  <circle cx="150" cy="100" r="40" fill="#FFC107" />
  <circle cx="150" cy="100" r="30" fill="#2196F3" />
  <circle cx="150" cy="100" r="20" fill="#E91E63" />
  <circle cx="150" cy="100" r="10" fill="#9C27B0" />
  
  <!-- String wrapped around -->
  <path d="M150,60 C120,70 170,80 150,90" stroke="#A0522D" stroke-width="3" fill="none" />
  <path d="M150,90 C180,100 130,110 150,120" stroke="#A0522D" stroke-width="3" fill="none" />
  
  <!-- Decorative patterns -->
  <path d="M150,100 L190,140" stroke="white" stroke-width="2" />
  <path d="M150,100 L110,140" stroke="white" stroke-width="2" />
  <path d="M150,100 L190,60" stroke="white" stroke-width="2" />
  <path d="M150,100 L110,60" stroke="white" stroke-width="2" />
  
  <!-- Spinning effect lines -->
  <path d="M90,100 L70,100" stroke="#FFA000" stroke-width="3" stroke-dasharray="5,3" />
  <path d="M210,100 L230,100" stroke="#FFA000" stroke-width="3" stroke-dasharray="5,3" />
  <path d="M150,40 L150,20" stroke="#FFA000" stroke-width="3" stroke-dasharray="5,3" />
  <path d="M150,160 L150,180" stroke="#FFA000" stroke-width="3" stroke-dasharray="5,3" />
  
  <!-- Shadow beneath -->
  <ellipse cx="150" cy="220" rx="30" ry="10" fill="rgba(0,0,0,0.2)" />
</svg>