<?xml version="1.0" encoding="UTF-8"?>
<svg width="300" height="200" viewBox="0 0 300 200" xmlns="http://www.w3.org/2000/svg">
  <!-- Traditional Kondapalli Wooden Bullock Cart -->
  <defs>
    <linearGradient id="wood" x1="0%" y1="0%" x2="100%" y2="0%">
      <stop offset="0%" style="stop-color:#8B4513;stop-opacity:1" />
      <stop offset="50%" style="stop-color:#A0522D;stop-opacity:1" />
      <stop offset="100%" style="stop-color:#8B4513;stop-opacity:1" />
    </linearGradient>
    <linearGradient id="lightWood" x1="0%" y1="0%" x2="100%" y2="0%">
      <stop offset="0%" style="stop-color:#CD853F;stop-opacity:1" />
      <stop offset="50%" style="stop-color:#DEB887;stop-opacity:1" />
      <stop offset="100%" style="stop-color:#CD853F;stop-opacity:1" />
    </linearGradient>
  </defs>
  
  <!-- Cart base -->
  <rect x="100" y="120" width="140" height="30" fill="url(#wood)" />
  
  <!-- Cart sides -->
  <rect x="100" y="90" width="10" height="30" fill="url(#wood)" />
  <rect x="230" y="90" width="10" height="30" fill="url(#wood)" />
  <rect x="100" y="90" width="140" height="5" fill="url(#wood)" />
  
  <!-- Wheels -->
  <circle cx="120" cy="150" r="20" fill="url(#wood)" stroke="black" stroke-width="2" />
  <circle cx="120" cy="150" r="5" fill="black" />
  <circle cx="220" cy="150" r="20" fill="url(#wood)" stroke="black" stroke-width="2" />
  <circle cx="220" cy="150" r="5" fill="black" />
  
  <!-- Connecting rod -->
  <rect x="50" y="120" width="50" height="8" fill="url(#wood)" />
  
  <!-- Bullocks -->
  <!-- First bullock -->
  <ellipse cx="40" cy="130" rx="25" ry="15" fill="#F5DEB3" /> <!-- Body -->
  <circle cx="20" cy="115" r="12" fill="#F5DEB3" /> <!-- Head -->
  <path d="M20,103 L15,95 M20,103 L25,95" stroke="black" stroke-width="2" /> <!-- Horns -->
  <line x1="40" y1="145" x2="40" y2="165" stroke="#F5DEB3" stroke-width="6" /> <!-- Back legs -->
  <line x1="25" y1="145" x2="25" y2="165" stroke="#F5DEB3" stroke-width="6" /> <!-- Front legs -->
  
  <!-- Second bullock -->
  <ellipse cx="10" cy="130" rx="25" ry="15" fill="#F5DEB3" /> <!-- Body -->
  <circle cx="-10" cy="115" r="12" fill="#F5DEB3" /> <!-- Head -->
  <path d="M-10,103 L-15,95 M-10,103 L-5,95" stroke="black" stroke-width="2" /> <!-- Horns -->
  <line x1="10" y1="145" x2="10" y2="165" stroke="#F5DEB3" stroke-width="6" /> <!-- Back legs -->
  <line x1="-5" y1="145" x2="-5" y2="165" stroke="#F5DEB3" stroke-width="6" /> <!-- Front legs -->
  
  <!-- Yoke -->
  <rect x="-15" y="110" width="60" height="5" fill="url(#wood)" />
  
  <!-- Load on cart (bags/grain) -->
  <ellipse cx="170" cy="90" rx="40" ry="20" fill="#FFD700" />
  <ellipse cx="170" cy="70" rx="35" ry="15" fill="#FFD700" />
  <ellipse cx="170" cy="55" rx="25" ry="10" fill="#FFD700" />
  
  <!-- Decorative elements (Kondapalli style) -->
  <rect x="100" y="120" width="140" height="5" fill="#E53935" />
  <rect x="100" y="90" width="140" height="5" fill="#E53935" />
  <circle cx="120" cy="150" r="15" fill="none" stroke="#E53935" stroke-width="2" />
  <circle cx="220" cy="150" r="15" fill="none" stroke="#E53935" stroke-width="2" />
</svg>