<?xml version="1.0" encoding="UTF-8"?>
<svg xmlns="http://www.w3.org/2000/svg" viewBox="0 0 200 200">
  <!-- Background -->
  <rect width="200" height="200" fill="#f9f4ef"/>
  
  <!-- Elephant Body -->
  <ellipse cx="100" cy="120" rx="50" ry="30" fill="#c19a6b"/>
  
  <!-- Head -->
  <circle cx="145" cy="100" r="25" fill="#c19a6b"/>
  
  <!-- Trunk -->
  <path d="M155,110 C170,130 180,150 165,160" fill="#c19a6b" stroke="#a67c52" stroke-width="1"/>
  
  <!-- Ears -->
  <ellipse cx="130" cy="85" rx="15" ry="20" fill="#c19a6b"/>
  <ellipse cx="160" cy="85" rx="15" ry="20" fill="#c19a6b"/>
  <ellipse cx="130" cy="85" rx="10" ry="15" fill="#df927e"/>
  <ellipse cx="160" cy="85" rx="10" ry="15" fill="#df927e"/>
  
  <!-- Legs -->
  <rect x="70" y="145" width="10" height="25" rx="3" ry="3" fill="#a67c52"/>
  <rect x="120" y="145" width="10" height="25" rx="3" ry="3" fill="#a67c52"/>
  <rect x="85" y="145" width="10" height="25" rx="3" ry="3" fill="#a67c52"/>
  <rect x="105" y="145" width="10" height="25" rx="3" ry="3" fill="#a67c52"/>
  
  <!-- Eyes -->
  <circle cx="140" cy="95" r="3" fill="#000"/>
  <circle cx="150" cy="95" r="3" fill="#000"/>
  
  <!-- Tusks -->
  <path d="M140,115 C135,125 130,130 125,125" fill="#f8f8ff" stroke="#f5f5f5" stroke-width="1"/>
  <path d="M150,115 C155,125 160,130 165,125" fill="#f8f8ff" stroke="#f5f5f5" stroke-width="1"/>
  
  <!-- Tail -->
  <path d="M50,120 C40,110 35,130 30,120" fill="none" stroke="#a67c52" stroke-width="2"/>
  
  <!-- Decorative elements -->
  <rect x="75" y="90" width="50" height="15" fill="#ea9a8a"/>
  <rect x="85" y="105" width="30" height="10" fill="#f9c74f"/>
  <path d="M75,90 L125,90 L125,105 L75,105 Z" fill="none" stroke="#e76f51" stroke-width="1" stroke-dasharray="2,2"/>
  
  <!-- Wheels (Pull Toy) -->
  <circle cx="75" cy="160" r="8" fill="#5d4037"/>
  <circle cx="75" cy="160" r="2" fill="#8b4513"/>
  <circle cx="125" cy="160" r="8" fill="#5d4037"/>
  <circle cx="125" cy="160" r="2" fill="#8b4513"/>
</svg>