<svg width="800" height="600" xmlns="http://www.w3.org/2000/svg">
  <rect width="100%" height="100%" fill="#FAFAFA"/>
  <!-- Handle -->
  <rect x="380" y="350" width="40" height="150" rx="5" fill="#A1887F"/>
  <!-- Rattle head -->
  <circle cx="400" cy="250" r="100" fill="#FFCA28"/>
  <circle cx="400" cy="250" r="80" fill="#FFD54F"/>
  <circle cx="400" cy="250" r="60" fill="#FFE082"/>
  <!-- Bells inside -->
  <circle cx="360" cy="230" r="15" fill="#FFA000"/>
  <circle cx="440" cy="230" r="15" fill="#FFA000"/>
  <circle cx="400" cy="290" r="15" fill="#FFA000"/>
  <!-- Decoration lines -->
  <path d="M320,200 Q400,180 480,200" stroke="#FFA000" stroke-width="3" fill="none"/>
  <path d="M320,300 Q400,320 480,300" stroke="#FFA000" stroke-width="3" fill="none"/>
  <!-- Sound holes -->
  <circle cx="350" cy="250" r="8" fill="#FFFFFF"/>
  <circle cx="400" cy="250" r="8" fill="#FFFFFF"/>
  <circle cx="450" cy="250" r="8" fill="#FFFFFF"/>
  <!-- Decorative dots -->
  <circle cx="350" cy="210" r="5" fill="#FF6F00"/>
  <circle cx="400" cy="210" r="5" fill="#FF6F00"/>
  <circle cx="450" cy="210" r="5" fill="#FF6F00"/>
  <circle cx="350" cy="290" r="5" fill="#FF6F00"/>
  <circle cx="400" cy="290" r="5" fill="#FF6F00"/>
  <circle cx="450" cy="290" r="5" fill="#FF6F00"/>
  <text x="400" y="550" font-family="Arial" font-size="24" text-anchor="middle" fill="#5D4037">Wooden Baby Rattle</text>
  <text x="400" y="580" font-family="Arial" font-size="18" text-anchor="middle" fill="#8D6E63">Channapatna Traditional Toy</text>
</svg>