<?xml version="1.0" encoding="UTF-8"?>
<svg xmlns="http://www.w3.org/2000/svg" viewBox="0 0 200 200">
  <!-- Background -->
  <rect width="200" height="200" fill="#f8f8f8"/>
  
  <!-- Train Track -->
  <rect x="20" y="140" width="160" height="5" fill="#8b4513"/>
  <rect x="20" y="150" width="160" height="5" fill="#8b4513"/>
  
  <!-- Track Ties -->
  <rect x="20" y="145" width="10" height="5" fill="#5d4037"/>
  <rect x="40" y="145" width="10" height="5" fill="#5d4037"/>
  <rect x="60" y="145" width="10" height="5" fill="#5d4037"/>
  <rect x="80" y="145" width="10" height="5" fill="#5d4037"/>
  <rect x="100" y="145" width="10" height="5" fill="#5d4037"/>
  <rect x="120" y="145" width="10" height="5" fill="#5d4037"/>
  <rect x="140" y="145" width="10" height="5" fill="#5d4037"/>
  <rect x="160" y="145" width="10" height="5" fill="#5d4037"/>
  <rect x="180" y="145" width="10" height="5" fill="#5d4037"/>
  
  <!-- Engine -->
  <rect x="40" y="100" width="40" height="40" rx="5" ry="5" fill="#c19a6b"/>
  <rect x="50" y="80" width="20" height="20" fill="#a67c52"/>
  <rect x="45" y="80" width="30" height="5" fill="#8b5a2b"/>
  <rect x="30" y="110" width="10" height="30" fill="#a67c52"/>
  
  <!-- Engine Details -->
  <circle cx="50" cy="140" r="10" fill="#5d4037"/>
  <circle cx="50" cy="140" r="5" fill="#8b4513"/>
  <circle cx="70" cy="140" r="10" fill="#5d4037"/>
  <circle cx="70" cy="140" r="5" fill="#8b4513"/>
  
  <!-- Smokestack -->
  <rect x="60" y="70" width="10" height="10" fill="#5d4037"/>
  <path d="M60,65 Q65,50 70,65" fill="#e6e6e6"/>
  
  <!-- Passenger Car -->
  <rect x="100" y="110" width="50" height="30" rx="5" ry="5" fill="#e68a00"/>
  <rect x="105" y="115" width="10" height="15" fill="#87ceeb"/>
  <rect x="120" y="115" width="10" height="15" fill="#87ceeb"/>
  <rect x="135" y="115" width="10" height="15" fill="#87ceeb"/>
  
  <!-- Passenger Car Wheels -->
  <circle cx="110" cy="140" r="10" fill="#5d4037"/>
  <circle cx="110" cy="140" r="5" fill="#8b4513"/>
  <circle cx="140" cy="140" r="10" fill="#5d4037"/>
  <circle cx="140" cy="140" r="5" fill="#8b4513"/>
  
  <!-- Connection -->
  <rect x="80" y="120" width="20" height="5" fill="#5d4037"/>
</svg>