<svg width="800" height="600" xmlns="http://www.w3.org/2000/svg">
  <rect width="100%" height="100%" fill="#f0f8f9"/>
  <!-- River -->
  <path d="M150,100 C250,150 300,200 350,250 C400,300 450,320 500,350 C550,380 600,420 650,500 L650,600 L50,600 L50,100 Z" fill="#75AADB" />
  <!-- Huts -->
  <rect x="450" y="200" width="120" height="80" fill="#DEB887" />
  <polygon points="450,200 510,150 570,200" fill="#DEB887" />
  <rect x="480" y="240" width="30" height="40" fill="#8B4513" />
  <!-- Trees -->
  <rect x="350" y="280" width="15" height="60" fill="#8B4513" />
  <circle cx="357" cy="250" r="30" fill="#228B22" />
  <rect x="650" y="280" width="15" height="60" fill="#8B4513" />
  <circle cx="657" cy="250" r="30" fill="#228B22" />
  <text x="400" y="500" font-family="Arial" font-size="24" text-anchor="middle" fill="#2E5984">East India Region</text>
  <text x="400" y="530" font-family="Arial" font-size="18" text-anchor="middle" fill="#517fa4">Riverine Clay Traditions</text>
</svg>