<?xml version="1.0" encoding="UTF-8"?>
<svg xmlns="http://www.w3.org/2000/svg" viewBox="0 0 200 200">
  <rect width="200" height="200" fill="#c2daec"/>
  <!-- River -->
  <path d="M30,40 C50,50 40,80 60,100 C80,120 70,140 90,160 C110,180 150,170 170,190" 
        fill="none" stroke="#3498db" stroke-width="8" stroke-linecap="round"/>
  
  <!-- Hills -->
  <path d="M10,80 Q30,50 50,80 Q70,50 90,80 Q110,50 130,80 Z" fill="#27ae60"/>
  <path d="M100,100 Q120,70 140,100 Q160,70 180,100 Z" fill="#27ae60"/>
  
  <!-- Clay Pottery Symbol -->
  <circle cx="70" cy="130" r="20" fill="#e74c3c"/>
  <path d="M50,130 Q70,90 90,130" fill="none" stroke="#c0392b" stroke-width="2"/>
  
  <!-- Tea Plantation -->
  <circle cx="130" cy="50" r="15" fill="#2ecc71"/>
  <circle cx="150" cy="60" r="15" fill="#2ecc71"/>
  <circle cx="130" cy="70" r="15" fill="#2ecc71"/>
  
  <!-- Text Label -->
  <text x="100" y="190" text-anchor="middle" font-family="Arial" font-size="12" font-weight="bold">East India</text>
</svg>