<svg width="800" height="600" xmlns="http://www.w3.org/2000/svg">
  <rect width="100%" height="100%" fill="#fff0e3"/>
  <!-- Ocean -->
  <path d="M0,400 C200,380 400,420 600,380 C700,370 800,400 800,400 L800,600 L0,600 Z" fill="#87CEEB" />
  <!-- Temple -->
  <rect x="300" y="250" width="200" height="150" fill="#F0C27A" />
  <polygon points="300,250 400,150 500,250" fill="#F0C27A" />
  <rect x="350" y="320" width="40" height="80" fill="#8D5B4C" />
  <rect x="410" y="320" width="40" height="80" fill="#8D5B4C" />
  <!-- Palm Trees -->
  <rect x="150" y="320" width="20" height="80" fill="#8D5B4C" />
  <path d="M160,320 C130,290 120,260 160,240 C200,260 190,290 160,320" fill="#1B7742" />
  <rect x="630" y="320" width="20" height="80" fill="#8D5B4C" />
  <path d="M640,320 C610,290 600,260 640,240 C680,260 670,290 640,320" fill="#1B7742" />
  <text x="400" y="500" font-family="Arial" font-size="24" text-anchor="middle" fill="#8D5B4C">South India Region</text>
  <text x="400" y="530" font-family="Arial" font-size="18" text-anchor="middle" fill="#AD7D59">Vibrant Coastal Traditions</text>
</svg>