<svg width="800" height="600" xmlns="http://www.w3.org/2000/svg">
  <rect width="100%" height="100%" fill="#FFF8E1"/>
  <!-- Desert -->
  <path d="M0,350 C100,320 200,370 300,330 C400,300 500,350 600,320 C700,290 800,330 800,330 L800,600 L0,600 Z" fill="#FFE0B2" />
  <!-- Sand dunes -->
  <path d="M100,400 C150,380 200,400 250,380 C300,360 350,380 400,360" fill="none" stroke="#FFCC80" stroke-width="8" />
  <path d="M450,370 C500,350 550,370 600,350 C650,330 700,350 750,330" fill="none" stroke="#FFCC80" stroke-width="8" />
  <!-- Sun -->
  <circle cx="650" cy="150" r="60" fill="#FFB74D" />
  <circle cx="650" cy="150" r="45" fill="#FF9800" />
  <!-- Cactus -->
  <rect x="200" y="250" width="20" height="100" fill="#689F38" />
  <path d="M200,280 C170,280 170,260 200,260" fill="#689F38" />
  <path d="M220,300 C250,300 250,280 220,280" fill="#689F38" />
  <!-- Traditional hut -->
  <rect x="400" y="280" width="100" height="70" fill="#D7CCC8" />
  <polygon points="400,280 450,220 500,280" fill="#A1887F" />
  <rect x="430" y="310" width="40" height="40" fill="#6D4C41" />
  <text x="400" y="500" font-family="Arial" font-size="24" text-anchor="middle" fill="#E65100">West India Region</text>
  <text x="400" y="530" font-family="Arial" font-size="18" text-anchor="middle" fill="#F57C00">Gujarat & Rajasthan Crafts</text>
</svg>