<?xml version="1.0" encoding="UTF-8"?>
<svg xmlns="http://www.w3.org/2000/svg" viewBox="0 0 200 200">
  <rect width="200" height="200" fill="#ffe6cc"/>
  <!-- Desert Landscape -->
  <path d="M0,140 Q40,120 80,140 Q120,120 160,140 Q200,120 240,140 L240,200 L0,200 Z" fill="#f5cda7"/>
  
  <!-- Sand Dunes -->
  <path d="M20,150 Q40,130 60,150 Q80,130 100,150" fill="none" stroke="#e6b17a" stroke-width="3"/>
  <path d="M120,160 Q140,140 160,160 Q180,140 200,160" fill="none" stroke="#e6b17a" stroke-width="3"/>
  
  <!-- Palm Trees -->
  <rect x="30" y="120" width="4" height="20" fill="#8b4513"/>
  <path d="M20,120 Q32,100 44,120" fill="#2ecc71"/>
  <path d="M30,100 Q32,80 34,100" fill="#2ecc71"/>
  
  <rect x="170" y="110" width="4" height="20" fill="#8b4513"/>
  <path d="M160,110 Q172,90 184,110" fill="#2ecc71"/>
  <path d="M170,90 Q172,70 174,90" fill="#2ecc71"/>
  
  <!-- Architectural Element -->
  <path d="M100,60 L130,60 L130,120 L100,120 Z" fill="#e74c3c"/>
  <path d="M90,70 L140,70 L140,80 L90,80 Z" fill="#c0392b"/>
  <path d="M100,60 Q115,40 130,60" fill="#e74c3c"/>
  <rect x="110" y="90" width="10" height="15" fill="#ecf0f1"/>
  
  <!-- Text Label -->
  <text x="100" y="190" text-anchor="middle" font-family="Arial" font-size="12" font-weight="bold">West India</text>
</svg>